<svg width="264" height="112" viewBox="0 0 264 112" fill="none" xmlns="http://www.w3.org/2000/svg">
<path d="M92.4048 65.2488H117.653L128.937 45.4756C128.937 45.4756 114.581 48.4926 95.6353 60.0961L92.4082 65.2521L92.4048 65.2488Z" fill="white"/>
<path d="M143.358 42.7841L145.717 65.0725H171.087L166.497 42.7163C166.497 42.7163 148.205 41.4722 143.354 42.7807" fill="white"/>
<path d="M80.8486 64.2894C130.019 30.167 169.46 38.462 169.46 38.462C170.114 28.1025 175.057 22.1025 175.057 22.1025C123.036 22.594 80.8486 64.2894 80.8486 64.2894Z" fill="url(#paint0_linear_418_2930)"/>
<path d="M110.991 36.8518C110.991 36.8518 136.609 20.9194 161.683 19.4957L158.388 3.07172H132.92C132.92 3.07172 110.747 36.8993 110.991 36.8518Z" fill="white"/>
<path d="M13.685 3.05815H48.5634L48.2346 33.5433L62.7229 2.99374H100.286L90.2554 51.8994C90.2554 51.8994 75.3739 64.2894 74.4553 65.0115H61.0822L69.9332 23.4482L50.1363 65.0759H25.7495L26.8648 21.7431L17.163 64.9471H0.772949L13.6884 3.06152L13.685 3.05815Z" fill="white"/>
<path d="M224.539 45.4689L248.543 47.8282C248.543 47.8282 238.617 65.9606 207.803 65.1403C207.803 65.1403 192.528 65.0759 183.711 58.3571C173.636 50.6791 175.155 37.7399 175.253 36.2653C175.352 34.7907 177.284 21.9092 187.054 13.3193C193.027 8.37685 201.901 0.929302 220.881 0.0445449C220.881 0.0445449 250.58 -1.82329 254.414 18.6312H229.583C229.583 18.6312 222.651 13.7159 214.783 15.7125C214.783 15.7125 205.803 17.2549 201.359 31.7568C201.359 31.7568 195.311 49.8994 210.257 50.096C210.257 50.096 219.274 50.5333 224.532 45.4689" fill="white"/>
<path d="M17.2206 111.704C13.3324 111.704 10.1154 111.1 7.56959 109.897C5.02379 108.69 3.12207 106.981 1.8746 104.764C0.623736 102.548 0 99.9339 0 96.9203V80.1032H6.87127V96.6051C6.87127 99.5882 7.7662 101.893 9.56283 103.52C11.3561 105.148 13.9087 105.961 17.2273 105.961C20.546 105.961 23.0952 105.148 24.8918 103.52C26.6851 101.893 27.5834 99.5882 27.5834 96.6051V80.1032H34.4547V96.9203C34.4547 99.9339 33.8276 102.548 32.5767 104.764C31.3258 106.981 29.4343 108.69 26.902 109.897C24.3698 111.104 21.146 111.704 17.2273 111.704H17.2206Z" fill="url(#paint1_linear_418_2930)"/>
<path d="M58.0888 111.704C55.7362 111.704 53.5362 111.561 51.4887 111.273C49.4378 110.988 47.6446 110.476 46.109 109.737C44.5733 108.998 43.3733 107.968 42.5157 106.639C41.6581 105.314 41.2275 103.609 41.2275 101.531V101.303C41.2275 101.212 41.2411 101.137 41.2716 101.076H48.0547C48.0242 101.198 48.0005 101.341 47.9869 101.507C47.97 101.673 47.9632 101.859 47.9632 102.073C47.9632 103.009 48.37 103.768 49.1836 104.358C49.9971 104.944 51.1565 105.375 52.665 105.646C54.1735 105.917 55.9362 106.053 57.9532 106.053C58.8278 106.053 59.7091 106.015 60.5973 105.941C61.4854 105.866 62.3363 105.754 63.1532 105.602C63.9668 105.453 64.699 105.239 65.3465 104.968C65.994 104.697 66.5058 104.358 66.8821 103.951C67.2584 103.544 67.4482 103.07 67.4482 102.527C67.4482 101.744 67.0923 101.117 66.3872 100.649C65.6787 100.181 64.7228 99.7984 63.516 99.4967C62.3092 99.195 60.9532 98.9407 59.4481 98.7271C57.9396 98.517 56.3803 98.2831 54.7701 98.0254C53.1565 97.7712 51.5972 97.422 50.0921 96.9847C48.5836 96.5475 47.2276 95.9813 46.0242 95.2898C44.8174 94.5983 43.8615 93.7 43.153 92.5982C42.4445 91.4965 42.092 90.1508 42.092 88.5507C42.092 87.1033 42.4377 85.8219 43.1326 84.7066C43.8242 83.5914 44.8513 82.649 46.2073 81.8795C47.5632 81.11 49.2276 80.5303 51.2039 80.1405C53.1768 79.7506 55.4447 79.554 58.0074 79.554C60.5702 79.554 62.8583 79.7642 64.7906 80.1879C66.7194 80.6117 68.316 81.2117 69.5838 81.9947C70.8483 82.7778 71.7906 83.7202 72.411 84.8185C73.028 85.9202 73.3364 87.1473 73.3364 88.5033V89.2253H66.6448V88.6389C66.6448 87.9745 66.2821 87.388 65.56 86.8761C64.838 86.3643 63.8583 85.9575 62.621 85.6558C61.3837 85.3541 59.9837 85.2049 58.4176 85.2049C56.2481 85.2049 54.4853 85.3405 53.1294 85.6117C51.7734 85.8829 50.7768 86.2524 50.1463 86.7202C49.5124 87.188 49.1971 87.7067 49.1971 88.2795C49.1971 88.9745 49.5497 89.5304 50.2582 89.9508C50.9666 90.3745 51.9226 90.7135 53.1294 90.9677C54.3362 91.2253 55.6921 91.4593 57.1972 91.6694C58.7057 91.8796 60.2651 92.1203 61.8753 92.3915C63.4888 92.6627 65.0482 93.0084 66.5533 93.4322C68.0584 93.8559 69.4177 94.4186 70.6211 95.1271C71.8279 95.8356 72.7839 96.7237 73.4924 97.7949C74.2008 98.8661 74.5534 100.185 74.5534 101.751C74.5534 104.164 73.8585 106.1 72.472 107.561C71.0856 109.022 69.1567 110.076 66.6855 110.727C64.2143 111.375 61.3498 111.7 58.0956 111.7L58.0888 111.704Z" fill="url(#paint2_linear_418_2930)"/>
<path d="M78.0723 111.161L93.625 80.1032H101.401L116.954 111.161H109.405L106.466 105.148H88.0656L85.1266 111.161H78.0723ZM90.7775 99.5882H103.754L100.137 91.9915C99.9844 91.6592 99.7675 91.1711 99.4827 90.5236C99.1946 89.8762 98.9098 89.2118 98.6251 88.5338C98.3369 87.8558 98.0827 87.2694 97.8556 86.771C97.6285 86.2727 97.4996 86.0117 97.4725 85.9812H97.1098C96.8386 86.5846 96.5301 87.2761 96.1844 88.0592C95.8386 88.8423 95.5064 89.5982 95.1911 90.3203C94.8759 91.0423 94.6115 91.6152 94.4013 92.0389L90.7843 99.5882H90.7775Z" fill="url(#paint3_linear_418_2930)"/>
<path d="M155.517 111.704C151.389 111.704 147.833 111.08 144.85 109.826C141.866 108.575 139.568 106.751 137.955 104.354C136.341 101.958 135.534 99.0424 135.534 95.6051C135.534 92.1678 136.341 89.2592 137.955 86.8796C139.565 84.4999 141.866 82.6829 144.85 81.432C147.833 80.1812 151.389 79.5574 155.517 79.5574C159.646 79.5574 163.202 80.1845 166.185 81.432C169.169 82.6829 171.467 84.4999 173.08 86.8796C174.694 89.2592 175.501 92.1678 175.501 95.6051C175.501 99.0424 174.694 101.958 173.08 104.354C171.467 106.751 169.169 108.575 166.185 109.826C163.202 111.076 159.646 111.704 155.517 111.704ZM155.517 105.961C157.385 105.961 159.104 105.751 160.67 105.327C162.236 104.907 163.602 104.287 164.762 103.473C165.921 102.659 166.826 101.636 167.474 100.398C168.121 99.1611 168.446 97.7305 168.446 96.1034V95.0627C168.446 93.4356 168.121 92.0118 167.474 90.7915C166.826 89.5711 165.921 88.5542 164.762 87.7406C163.602 86.927 162.236 86.3168 160.67 85.9101C159.104 85.5033 157.385 85.2999 155.517 85.2999C153.65 85.2999 151.931 85.5033 150.365 85.9101C148.799 86.3168 147.433 86.927 146.273 87.7406C145.114 88.5542 144.216 89.5711 143.585 90.7915C142.951 92.0118 142.636 93.4356 142.636 95.0627V96.1034C142.636 97.7305 142.951 99.1611 143.585 100.398C144.219 101.636 145.114 102.659 146.273 103.473C147.433 104.287 148.799 104.904 150.365 105.327C151.931 105.751 153.65 105.961 155.517 105.961Z" fill="url(#paint4_linear_418_2930)"/>
<path d="M182.914 111.161V80.1032H189.379L206.379 96.4254C206.769 96.7576 207.236 97.2085 207.779 97.7814C208.321 98.3543 208.887 98.9407 209.474 99.5441C210.06 100.147 210.565 100.69 210.989 101.171H211.352C211.321 100.51 211.284 99.7034 211.24 98.7509C211.196 97.8017 211.172 97.0254 211.172 96.422V80.0998H217.772V111.158H211.443L194.399 94.6559C193.585 93.8728 192.735 93.005 191.843 92.0559C190.955 91.1067 190.24 90.3474 189.697 89.7745H189.382C189.412 90.1677 189.443 90.8525 189.473 91.8321C189.504 92.8118 189.518 93.9338 189.518 95.2017V111.161H182.917H182.914Z" fill="url(#paint5_linear_418_2930)"/>
<path d="M226.542 111.161V80.1032H257.963V85.8456H233.413V92.4932H255.251V98.2356H233.413V105.426H258.325V111.168H226.542V111.161Z" fill="url(#paint6_linear_418_2930)"/>
<path d="M240.99 22.9974L211.84 22.9364C211.84 22.9364 203.776 30.1365 205.938 40.1942C211.213 40.4824 218.667 41.1231 226.003 41.8214C236.867 39.8925 240.098 28.0822 240.99 23.0008V22.9974Z" fill="#BE1E2D"/>
<path style="mix-blend-mode:multiply" d="M240.99 22.9974L211.84 22.9364C211.84 22.9364 203.776 30.1365 205.938 40.1942C211.213 40.4824 218.667 41.1231 226.003 41.8214C236.867 39.8925 240.098 28.0822 240.99 23.0008V22.9974Z" fill="url(#paint7_linear_418_2930)"/>
<path d="M240.989 22.9974C240.094 28.0788 236.867 39.8925 226.002 41.818C233.653 42.5468 241.169 43.3332 245.945 43.8451C249.071 44.1807 252.108 42.6756 253.738 39.9874L264 23.0449L240.992 22.994L240.989 22.9974Z" fill="#BE1E2D"/>
<defs>
<linearGradient id="paint0_linear_418_2930" x1="-37.6783" y1="43.1943" x2="-37.3393" y2="43.1943" gradientUnits="userSpaceOnUse">
<stop stop-color="#F6914A"/>
<stop offset="1" stop-color="#BE1E2D"/>
</linearGradient>
<linearGradient id="paint1_linear_418_2930" x1="-0.00338987" y1="95.6322" x2="258.325" y2="95.6322" gradientUnits="userSpaceOnUse">
<stop stop-color="#F6914A"/>
<stop offset="1" stop-color="#BE1E2D"/>
</linearGradient>
<linearGradient id="paint2_linear_418_2930" x1="-0.00349299" y1="95.6322" x2="258.325" y2="95.6322" gradientUnits="userSpaceOnUse">
<stop stop-color="#F6914A"/>
<stop offset="1" stop-color="#BE1E2D"/>
</linearGradient>
<linearGradient id="paint3_linear_418_2930" x1="-0.0033226" y1="95.6322" x2="258.325" y2="95.6322" gradientUnits="userSpaceOnUse">
<stop stop-color="#F6914A"/>
<stop offset="1" stop-color="#BE1E2D"/>
</linearGradient>
<linearGradient id="paint4_linear_418_2930" x1="-0.00312761" y1="95.6322" x2="258.326" y2="95.6322" gradientUnits="userSpaceOnUse">
<stop stop-color="#F6914A"/>
<stop offset="1" stop-color="#BE1E2D"/>
</linearGradient>
<linearGradient id="paint5_linear_418_2930" x1="-0.00354939" y1="95.6322" x2="258.325" y2="95.6322" gradientUnits="userSpaceOnUse">
<stop stop-color="#F6914A"/>
<stop offset="1" stop-color="#BE1E2D"/>
</linearGradient>
<linearGradient id="paint6_linear_418_2930" x1="-0.00329548" y1="95.6322" x2="258.325" y2="95.6322" gradientUnits="userSpaceOnUse">
<stop stop-color="#F6914A"/>
<stop offset="1" stop-color="#BE1E2D"/>
</linearGradient>
<linearGradient id="paint7_linear_418_2930" x1="211.416" y1="13.9668" x2="229.817" y2="40.8925" gradientUnits="userSpaceOnUse">
<stop stop-color="#F6914A" stop-opacity="0"/>
<stop offset="0.43" stop-color="#F6914A" stop-opacity="0"/>
<stop offset="1" stop-color="#751E2D"/>
</linearGradient>
</defs>
</svg>
